<?xml version="1.0" encoding="UTF-8"?>
<svg version="1.1" xmlns="http://www.w3.org/2000/svg" width="1381" height="1659">
<path d="M0 0 C0.6703125 0.515625 1.340625 1.03125 2.03125 1.5625 C15.66509295 12.38301028 24.50430883 30.02930007 27 47 C28.28581171 61.00106085 24.60905214 73.95898657 15.65625 84.8515625 C-10.10854414 112.35926919 -55.41965344 115.6235272 -90.68945312 116.92645264 C-115.30430255 117.70997159 -139.90310501 116.97755607 -164.5 116 C-267.82441879 111.93278268 -369.91287002 124.08220664 -616.875 183.5625 C-617.95222321 183.88784729 -619.02944641 184.21319458 -620.13931274 184.54840088 C-631.08998282 187.86586528 -642.00960622 191.27617265 -652.8828125 194.83984375 C-653.77499481 195.1283168 -654.66717712 195.41678986 -655.58639526 195.71400452 C-656.81037521 196.12035378 -656.81037521 196.12035378 -658.05908203 196.53491211 C-658.77484406 196.7703624 -659.49060608 197.00581268 -660.22805786 197.24839783 C-662.20714329 197.95724516 -662.20714329 197.95724516 -664 200 C-663.72817246 207.19107406 -656.94309436 212.36621552 -652 217 C-642.02098875 225.86774138 -630.08487681 232.14809745 -618.58398438 238.78710938 C-610.01755773 243.74312176 -601.79878297 248.88518088 -594 255 C-593.25105469 255.556875 -592.50210938 256.11375 -591.73046875 256.6875 C-587.57223649 259.93955944 -585.40649717 262.90144775 -584 268 C-584.35336998 273.95149432 -585.69630885 278.36901514 -588.4375 283.625 C-588.96549194 284.65596802 -588.96549194 284.65596802 -589.50415039 285.70776367 C-595.54700591 297.16036352 -603.71271972 307.11109995 -612 317 C-615.01291502 320.65618337 -618.00778599 324.32686549 -621 328 C-621.67869141 328.82709473 -621.67869141 328.82709473 -622.37109375 329.67089844 C-634.13523549 344.02538304 -644.72807665 358.91461783 -654 375 C-639.49795834 375.86245622 -625.52595847 372.63838086 -611.98193359 367.71777344 C-583.22617891 357.30364203 -556.62381902 355.52441955 -528 368 C-497.77008552 382.33320695 -464.05427982 405.29734142 -451 437 C-447.26344067 447.72282988 -447.50551682 460.77765573 -451.68359375 471.33203125 C-458.61123825 485.37233153 -469.12580048 492.78439864 -482.53393555 499.91381836 C-520.65943539 520.30983933 -544.05964014 561.33839617 -563.56591797 598.28759766 C-564.98046588 600.96305345 -566.41285221 603.62833268 -567.84765625 606.29296875 C-573.71123858 617.26724905 -579.20448117 628.40959286 -584.53869629 639.64880371 C-585.25619805 641.16048373 -585.97580431 642.67116688 -586.69763184 644.18078613 C-587.71528503 646.31345802 -588.72243715 648.4507749 -589.7265625 650.58984375 C-590.02811249 651.21924362 -590.32966248 651.84864349 -590.64035034 652.49711609 C-594.44076219 660.52921102 -594.44076219 660.52921102 -594.0078125 669.0078125 C-591.47267896 672.78585198 -588.71811904 676.32580835 -585.875 679.875 C-568.61093882 701.99442823 -556.31102432 728.62356243 -559.625 757.25 C-561.83471706 770.18421053 -567.57786819 780.9866564 -577.6796875 789.3984375 C-589.8395891 797.79163558 -604.72002672 799.25974792 -619 797 C-622.70231768 796.21675413 -626.37422075 795.31934104 -630.0144043 794.28466797 C-635.59019184 792.78201182 -640.83596693 792.32288957 -646.14453125 795.13671875 C-651.93356369 800.5190276 -656.66661447 806.67437463 -661.43457031 812.94775391 C-664.26144405 816.65372718 -667.13488142 820.32357215 -670 824 C-671.19153138 825.5324548 -672.38293889 827.06500592 -673.57421875 828.59765625 C-680.48408449 837.48066611 -687.40770043 846.34327909 -694.5625 855.03125 C-696.40447914 857.27468614 -698.23717834 859.52432519 -700.0625 861.78125 C-705.67753284 868.7226356 -711.32964209 875.62269865 -717.11889648 882.41967773 C-719.93304273 885.72672316 -722.70039765 889.06649064 -725.4375 892.4375 C-732.98734831 901.70260902 -740.80649683 910.72158693 -748.84765625 919.5625 C-751.18665353 922.21138259 -753.4080066 924.93588593 -755.625 927.6875 C-758.68896453 931.4749006 -761.85099717 934.96981472 -765.34765625 938.35546875 C-767.00845601 940.00841603 -768.53622391 941.72251638 -770.0625 943.5 C-782.10385527 957.42702612 -794.81782673 971.4029735 -809.28515625 982.83984375 C-812.09069019 985.07216068 -814.78734436 987.40605484 -817.5 989.75 C-870.87203283 1034.26130624 -940.70663294 1055.65539517 -1008.6875 1063.25 C-1009.79955811 1063.37476212 -1009.79955811 1063.37476212 -1010.93408203 1063.50204468 C-1029.34686685 1065.53917661 -1047.75410242 1066.25907203 -1066.26733398 1066.66748047 C-1068.63990175 1066.72270586 -1071.01231639 1066.78493417 -1073.38452148 1066.85400391 C-1076.86683239 1066.95503761 -1080.34907163 1067.03446422 -1083.83203125 1067.109375 C-1084.8760762 1067.14359558 -1085.92012115 1067.17781616 -1086.99580383 1067.21307373 C-1096.02793727 1067.36598361 -1106.12705763 1066.54476355 -1113.25 1060.4375 C-1114.34054687 1059.53837891 -1114.34054687 1059.53837891 -1115.453125 1058.62109375 C-1117 1057 -1117 1057 -1117 1055 C-1114.96240234 1053.52636719 -1114.96240234 1053.52636719 -1112.0859375 1051.796875 C-1111.02544189 1051.15314941 -1109.96494629 1050.50942383 -1108.87231445 1049.84619141 C-1108.30243805 1049.50469055 -1107.73256165 1049.1631897 -1107.14541626 1048.81134033 C-1104.15174004 1047.01667238 -1101.17284668 1045.19770682 -1098.19140625 1043.3828125 C-1097.58497787 1043.01461395 -1096.9785495 1042.64641541 -1096.35374451 1042.26705933 C-1082.00585474 1033.54607277 -1067.89064908 1024.43159592 -1054 1015 C-1053.37496582 1014.57686523 -1052.74993164 1014.15373047 -1052.10595703 1013.71777344 C-1035.33742584 1002.34799394 -1019.00062476 990.4257669 -1003 978 C-1002.36545898 977.50725586 -1001.73091797 977.01451172 -1001.07714844 976.50683594 C-989.39277428 967.41491319 -977.96143284 958.03679945 -966.69140625 948.43701172 C-965.00707393 947.00600998 -963.3165372 945.58262965 -961.625 944.16015625 C-953.13989428 936.9947135 -945.0222256 929.48845731 -936.96289062 921.84960938 C-935.11720075 920.11043693 -933.25807254 918.38763087 -931.390625 916.671875 C-923.76169852 909.65322091 -916.34083748 902.44479991 -909 895.125 C-908.11546143 894.24505371 -907.23092285 893.36510742 -906.31958008 892.45849609 C-901.93933991 888.06785156 -897.70745261 883.616917 -893.66699219 878.91210938 C-890.75670575 875.57388978 -887.67749838 872.39511627 -884.625 869.1875 C-879.52359604 863.79050769 -874.67120934 858.32089878 -870.04296875 852.51171875 C-867.92190349 849.9039846 -865.70399595 847.41948623 -863.4375 844.9375 C-859.0632693 840.12509075 -855.00922336 835.11800125 -851 830 C-850.21367188 829.00871094 -849.42734375 828.01742187 -848.6171875 826.99609375 C-845.72497002 823.34610206 -842.85839199 819.6765243 -840 816 C-839.3905957 815.21657227 -838.78119141 814.43314453 -838.15332031 813.62597656 C-829.34672552 802.27183814 -820.86972827 790.77457297 -812.890625 778.82421875 C-811.12688087 776.18953485 -809.35125692 773.56316567 -807.57228088 770.93875122 C-798.65838671 757.77865353 -789.93475998 744.52733778 -781.6875 730.9375 C-780.67574707 729.27279663 -780.67574707 729.27279663 -779.64355469 727.57446289 C-769.51639093 713.18076913 -769.51639093 713.18076913 -767 697 C-768.93718993 693.62616922 -771.38563123 690.8687872 -774 688 C-774.46083984 687.49243164 -774.92167969 686.98486328 -775.39648438 686.46191406 C-777.95633208 683.6494278 -780.53772024 680.85835492 -783.13671875 678.08203125 C-785.41685447 675.64131212 -787.63408148 673.157473 -789.8125 670.625 C-792.47056382 667.54859683 -795.28496561 664.69164128 -798.18652344 661.84594727 C-799.81127738 660.19210174 -801.29705567 658.49841752 -802.78515625 656.72265625 C-808.18614083 650.51316671 -814.08064073 644.77065833 -819.90600586 638.96362305 C-821.9326298 636.94235732 -823.95385547 634.91580426 -825.97460938 632.88867188 C-834.396464 624.44950327 -834.396464 624.44950327 -843.26635742 616.48852539 C-847.19154429 613.11831495 -850.88510854 609.47767149 -854.61914062 605.8984375 C-859.95717011 600.3485772 -859.95717011 600.3485772 -866.91186523 597.88720703 C-873.5571799 598.29917077 -879.24290203 600.94238488 -885.25 603.625 C-923.38366273 620.04219321 -963.11423148 627.47244086 -1004.6875 625.75 C-1005.41066406 625.72397705 -1006.13382813 625.6979541 -1006.87890625 625.67114258 C-1013.20924146 625.29117317 -1019.41742208 623.84469851 -1024.625 620.125 C-1026 618 -1026 618 -1025.9453125 615.68359375 C-1024.65057344 612.00803286 -1022.22977921 610.2540132 -1019.25 607.9375 C-1018.05516448 606.96876362 -1016.86251747 605.99732281 -1015.671875 605.0234375 C-1014.75438477 604.27658691 -1014.75438477 604.27658691 -1013.81835938 603.51464844 C-1010.95387918 601.1286072 -1008.22422715 598.6062762 -1005.5 596.0625 C-1004.96181641 595.56057129 -1004.42363281 595.05864258 -1003.86914062 594.54150391 C-1002.78141913 593.5262322 -1001.69417742 592.51044623 -1000.60742188 591.49414062 C-999.0451591 590.04197657 -997.47075648 588.60455411 -995.890625 587.171875 C-989.48246295 581.34891039 -983.25874512 575.36179136 -977.125 569.25 C-976.42342773 568.55302002 -975.72185547 567.85604004 -974.99902344 567.13793945 C-971.06225991 563.18947608 -967.31155353 559.13751732 -963.67041016 554.91552734 C-961.06803375 551.93127635 -958.34152857 549.06741941 -955.625 546.1875 C-950.95316099 541.19454716 -946.50199685 536.09431243 -942.2265625 530.75390625 C-940.23318789 528.28841661 -938.19029993 525.87467563 -936.12207031 523.47192383 C-929.65120065 515.94061449 -923.63566237 508.0977687 -917.65283203 500.17626953 C-916.04075136 498.05365696 -914.4125537 495.94467286 -912.77734375 493.83984375 C-883.14281264 455.63270759 -857.66940665 414.10318417 -834 372 C-833.41750488 370.96649414 -832.83500977 369.93298828 -832.23486328 368.86816406 C-824.8498336 355.74569881 -817.66412605 342.54812491 -810.78466797 329.15356445 C-807.08337002 321.98294088 -803.19408633 314.94162796 -799.1875 307.9375 C-781.23310203 277.45693049 -781.23310203 277.45693049 -780 243 C-780.68628149 234.49010953 -778.38503821 227.08144645 -776 219 C-776.89912109 219.23783203 -776.89912109 219.23783203 -777.81640625 219.48046875 C-782.75879869 220.75297662 -787.67001053 221.95742044 -792.6875 222.890625 C-805.14105366 225.27450435 -816.97801681 228.78970328 -828.9375 232.9375 C-829.66663605 233.19030731 -830.39577209 233.44311462 -831.14700317 233.70358276 C-837.59299297 235.94916593 -844.02944025 238.20897116 -850.37939453 240.71533203 C-851.09277481 240.99381485 -851.80615509 241.27229767 -852.54115295 241.55921936 C-853.88632369 242.08735591 -855.22772622 242.62524533 -856.56419373 243.17503357 C-860.85871402 244.85753786 -864.40552291 245.37741087 -869 245 C-871.50825079 243.7790678 -873.55075403 242.62785704 -875.8125 241.0625 C-876.4206958 240.65499512 -877.0288916 240.24749023 -877.65551758 239.82763672 C-883.21981008 236.01543263 -888.16652086 231.70030387 -893 227 C-893.84691406 226.2265625 -894.69382812 225.453125 -895.56640625 224.65625 C-929.64970292 192.50781297 -950.08813583 143.49127354 -968.5546875 101.29638672 C-969.88801981 98.25539806 -971.23910961 95.22294328 -972.59375 92.19140625 C-973.33470151 90.503204 -974.07439192 88.81444738 -974.8125 87.125 C-975.14419189 86.38902588 -975.47588379 85.65305176 -975.81762695 84.89477539 C-977.9699716 79.87460726 -979.20377962 75.20813111 -977.1953125 69.85546875 C-975.59700559 67.3646766 -974.09870857 65.09870857 -972 63 C-965.03636781 62.3728219 -958.942314 64.05716709 -952.2578125 65.88671875 C-951.13543182 66.18560501 -950.01305115 66.48449127 -948.85665894 66.79243469 C-945.27688135 67.7481891 -941.70099332 68.71769409 -938.125 69.6875 C-935.76065495 70.32055209 -933.39607344 70.9527217 -931.03125 71.58398438 C-921.77745603 74.06065299 -912.53014918 76.55202728 -903.32015991 79.18737793 C-890.9062496 82.71982814 -879.42399096 84.34608626 -866.5 84.3125 C-865.29085937 84.32861328 -864.08171875 84.34472656 -862.8359375 84.36132812 C-845.20065977 84.37053234 -828.11590018 80.57283173 -811.0625 76.4140625 C-809.17157532 75.95997077 -807.28044009 75.50675506 -805.38911438 75.05433655 C-801.36168783 74.08969039 -797.33540571 73.12046018 -793.30996704 72.14755249 C-783.51465365 69.78142778 -773.71179199 67.44686496 -763.90926552 65.11083794 C-761.6582311 64.57437921 -759.40725358 64.03768165 -757.15633202 63.50074959 C-662.99602556 41.04304557 -568.37191435 20.52588954 -418.90625 -11.65414429 C-403.27482723 -15.00713813 -387.64494668 -18.36717334 -372.01694107 -21.73606014 C-360.39853831 -24.24059043 -348.77944001 -26.74187405 -337.15978622 -29.24059391 C-330.27960346 -30.72022956 -323.39974259 -32.20132381 -316.52075195 -33.68649292 C-310.11631364 -35.06918827 -303.7107768 -36.4467169 -297.3045311 -37.8210144 C-294.98243836 -38.31998274 -292.66069241 -38.8205687 -290.33935928 -39.32305908 C-278.01346383 -41.99016939 -265.67112122 -44.49180193 -253.25927734 -46.72875977 C-252.13932184 -46.93178428 -251.01936634 -47.13480879 -249.86547279 -47.34398556 C-173.02083712 -60.92790058 -62.02973763 -53.93890229 0 0 Z M-673 397 C-678.52319005 402.91867773 -683.66606837 409.01400853 -688.63012695 415.40063477 C-696.55727237 425.59541096 -704.73766531 435.58608196 -713.11499023 445.41381836 C-715.98082743 448.77888283 -718.7854173 452.18647553 -721.5625 455.625 C-725.43812933 460.38807218 -729.51234289 464.93364249 -733.66796875 469.453125 C-735.62405252 471.58941749 -737.54187697 473.74780657 -739.4375 475.9375 C-744.18443795 481.38931968 -749.09098124 486.69461013 -754 492 C-754.55719727 492.60376465 -755.11439453 493.2075293 -755.68847656 493.82958984 C-762.97034724 501.70850106 -770.36470631 509.46219011 -777.9375 517.0625 C-778.62279785 517.75239014 -779.3080957 518.44228027 -780.01416016 519.15307617 C-783.8892365 523.01640417 -787.87288968 526.68645518 -792.01538086 530.26049805 C-795.37164127 533.20223201 -798.57979254 536.29902262 -801.8125 539.375 C-808.00142619 545.21850109 -814.30926014 550.73347582 -821 556 C-822.89636856 557.52016589 -824.79222129 559.04097555 -826.6875 560.5625 C-828.12449468 561.70896699 -829.56179506 562.8550516 -831 564 C-827.42738202 566.1250528 -823.76443073 566.68904018 -819.71875 567.296875 C-818.23646189 567.53220674 -816.75420404 567.76772915 -815.27197266 568.00341797 C-814.49428528 568.12473083 -813.7165979 568.2460437 -812.91534424 568.37103271 C-778.96164143 573.69836551 -745.43793387 581.04844505 -713.13696289 592.93847656 C-711.99606201 593.35194336 -710.85516113 593.76541016 -709.6796875 594.19140625 C-708.17510986 594.75130249 -708.17510986 594.75130249 -706.64013672 595.32250977 C-703.82207649 596.04565727 -702.61464582 596.24267223 -700 595 C-694.07501167 588.47185358 -690.01884604 579.99802528 -685.8125 572.3125 C-685.15605886 571.12077558 -684.49948091 569.92912651 -683.84277344 568.73754883 C-678.20786892 558.48514593 -672.73317122 548.15151287 -667.40429688 537.73681641 C-666.02628779 535.05123194 -664.63102669 532.37514396 -663.234375 529.69921875 C-653.24290195 510.36587857 -645.05207337 490.24054203 -637.75 469.75 C-637.3669873 468.69780273 -636.98397461 467.64560547 -636.58935547 466.56152344 C-633.14934452 456.61368851 -633.03265742 449.86399232 -637.390625 440.2421875 C-642.56912721 429.80976799 -648.22970545 420.74158137 -656 412 C-656.49113281 411.43796875 -656.98226562 410.8759375 -657.48828125 410.296875 C-659.06328187 408.49910754 -660.65340718 406.7161044 -662.25 404.9375 C-662.74532227 404.37667725 -663.24064453 403.81585449 -663.75097656 403.23803711 C-666.59364887 400.13394218 -668.93647104 398.19384701 -673 397 Z " fill="#CB0000" transform="translate(1129,72)"/>
<path d="M0 0 C0.96349365 0.27102539 1.9269873 0.54205078 2.91967773 0.82128906 C40.04527039 11.49920625 77.1094475 30.76207898 101.6875 61.4375 C102.24308594 62.1284375 102.79867187 62.819375 103.37109375 63.53125 C107.58077175 68.94225098 110.23928359 73.16312414 109.98828125 80.296875 C109.13664794 86.35784969 105.64710666 91.54019909 102.64404297 96.75756836 C72.63969681 149.01225657 65.84534574 212.4303879 61.9375 271.625 C61.83968735 273.09363998 61.83968735 273.09363998 61.73989868 274.59194946 C61.00018933 285.88925295 60.4895973 297.11416712 60.6875 308.4375 C61.3475 308.7675 62.0075 309.0975 62.6875 309.4375 C65.28067665 308.46236461 67.74892737 307.41393757 70.26171875 306.2578125 C71.05317795 305.8994632 71.84463715 305.54111389 72.66007996 305.17190552 C82.59635501 300.62995224 92.38913989 295.7859814 102.18426514 290.94934082 C106.7095547 288.71539299 111.23915748 286.49025512 115.76849365 284.26452637 C119.08805664 282.63315584 122.40710727 281.00074681 125.72607422 279.36816406 C206.53937654 239.62966128 206.53937654 239.62966128 248.125 231.125 C248.84397461 230.97764404 249.56294922 230.83028809 250.30371094 230.6784668 C264.48586469 227.98259414 278.59317881 227.05697297 293 227.125 C293.80699341 227.12682281 294.61398682 227.12864563 295.44543457 227.13052368 C307.72378321 227.17710384 319.68745787 227.6047763 331.6875 230.4375 C332.41195313 230.60378906 333.13640625 230.77007812 333.8828125 230.94140625 C355.58577874 236.1179088 378.93959205 248.2064374 391.125 267.5 C398.26490173 280.32762006 400.00574721 296.22065127 396.5625 310.5 C392.39790587 323.14874404 382.82877145 330.67008948 371.5625 336.9375 C370.66781006 337.44031494 369.77312012 337.94312988 368.85131836 338.46118164 C334.35801627 357.59179836 298.09866976 372.24348439 261.36090088 386.40637207 C213.74190616 404.61664079 213.74190616 404.61664079 167.38574219 425.77001953 C156.68852908 431.07522968 147.81619718 435.36212867 135.6875 434.4375 C134.81287109 434.37143555 133.93824219 434.30537109 133.03710938 434.23730469 C109.86181695 432.09081081 87.15711859 426.20260343 66.30859375 415.7421875 C63.73001596 414.45866294 61.52454361 413.8547123 58.6875 413.4375 C58.71924316 414.58178467 58.75098633 415.72606934 58.78369141 416.9050293 C58.77809325 423.49509527 58.04982942 430.0242871 57.38862038 436.57369614 C57.05385104 439.89561288 56.7303601 443.21860575 56.40585423 446.54153824 C56.14168355 449.24473924 55.87606081 451.94779523 55.61038208 454.65084839 C52.38671646 487.52977247 49.56893392 520.41983921 47.25 553.375 C47.12369792 555.15817405 46.99737572 556.94134667 46.87103271 558.72451782 C45.12362023 583.47197146 43.46681722 608.17928349 43.5 633 C43.50090637 634.28003906 43.50090637 634.28003906 43.50183105 635.5859375 C43.55732673 664.77937023 44.50781045 694.76244186 54.6875 722.4375 C55.07808594 723.51128906 55.46867188 724.58507812 55.87109375 725.69140625 C63.95982578 746.4569052 78.5719599 760.54555161 98.60986328 769.54589844 C126.56496959 781.54261386 160.57803548 782.66958497 190.625 782.625 C191.38651367 782.62439575 192.14802734 782.6237915 192.93261719 782.62316895 C248.67676053 782.50398299 313.51482696 773.20921067 357.6875 736.4375 C358.58210938 735.69628906 359.47671875 734.95507812 360.3984375 734.19140625 C366.59115215 728.84661714 371.73781779 722.93802073 376.6875 716.4375 C377.57888672 715.26960937 377.57888672 715.26960937 378.48828125 714.078125 C396.47540292 689.43370083 406.32260709 659.40067111 410.6875 629.4375 C410.83703125 628.43154785 410.9865625 627.4255957 411.140625 626.38916016 C417.72955606 579.66313076 413.31326776 531.48344819 408.8815918 484.76808167 C408.64459558 481.92231979 408.58792505 479.10477142 408.625 476.25 C408.63402344 475.32832031 408.64304687 474.40664063 408.65234375 473.45703125 C408.66974609 472.45736328 408.66974609 472.45736328 408.6875 471.4375 C415.09822007 471.95035761 419.1373513 473.67077816 423.52734375 478.43359375 C426.54407527 482.62865078 428.74158986 487.14253211 431.0625 491.75 C437.01053231 503.36282499 443.52193623 514.58707683 450.15527344 525.81787109 C452.15946196 529.24440756 454.0837612 532.71133621 456 536.1875 C460.74122712 544.73260297 465.87641217 553.04277383 470.96704102 561.38208008 C476.0257969 569.67353838 481.0054976 578.00759044 485.9375 586.375 C490.5788737 594.24483711 495.28067077 602.06596134 500.125 609.8125 C507.57250712 621.73855192 514.6544129 633.8773691 521.71289062 646.03613281 C522.94675798 648.16153341 524.18217669 650.28603504 525.41992188 652.40917969 C533.26213501 665.87148559 540.66251283 679.53064522 547.6875 693.4375 C548.12835937 694.30842285 548.56921875 695.1793457 549.0234375 696.07666016 C559.85141951 717.6464925 571.68894465 741.90777076 572.6875 766.4375 C572.72746094 767.13488281 572.76742187 767.83226562 572.80859375 768.55078125 C573.46566319 789.69295663 565.25690762 808.64066132 551.6875 824.4375 C551.02492188 825.22253906 550.36234375 826.00757813 549.6796875 826.81640625 C545.35787942 831.82461914 540.81973549 836.26865342 535.6875 840.4375 C534.78773438 841.17484375 533.88796875 841.9121875 532.9609375 842.671875 C468.95787292 893.55026051 372.67577304 916.61353821 212.6875 933.6875 C211.11178726 933.68851212 211.11178726 933.68851212 209.50424194 933.68954468 C127.30344748 933.60624385 42.17066937 909.94515878 -19 852.59765625 C-21.09588519 850.63984458 -23.24398829 848.7839913 -25.4375 846.9375 C-51.73648265 823.88596257 -68.38682546 789.8790744 -76 756.25 C-76.20254395 755.37915771 -76.40508789 754.50831543 -76.61376953 753.61108398 C-80.23573216 736.80475445 -80.61465348 719.715198 -80.48413086 702.59570312 C-80.47552016 700.53530332 -80.46744285 698.47490122 -80.4598608 696.41449738 C-80.3652137 675.63358148 -80.04109221 654.85579036 -79.62913585 634.07902718 C-79.56460873 630.81533408 -79.5016132 627.55161376 -79.43878365 624.28788757 C-78.27172489 564.12402951 -76.44710119 503.97696737 -74.66193163 443.82898045 C-74.3385544 432.93290346 -74.01662109 422.03678476 -73.69604492 411.140625 C-73.67323981 410.36553095 -73.65043469 409.5904369 -73.62693851 408.79185516 C-73.3759715 400.26022993 -73.12558039 391.72858799 -72.87599277 383.1969223 C-72.85386329 382.44048108 -72.8317338 381.68403985 -72.80893372 380.90467617 C-72.72033713 377.87582914 -72.63175294 374.84698176 -72.54324634 371.8181321 C-72.31020386 363.84316244 -72.07626113 355.86822233 -71.83866692 347.89338684 C-70.48499966 302.45565719 -69.39815765 257.01958058 -68.80981445 211.56518555 C-68.76999119 208.49484492 -68.72826653 205.42453946 -68.68481445 202.35424805 C-68.56632092 193.96630508 -68.45968651 185.57844555 -68.38083458 177.19002724 C-68.34469001 173.38633839 -68.30196512 169.58293189 -68.24591064 165.77947998 C-68.18959579 161.94501085 -68.14899516 158.1106528 -68.11879158 154.27589226 C-68.1050284 152.8523527 -68.08604246 151.42885096 -68.06103325 150.00546455 C-67.71509205 129.77066319 -72.33166475 112.32486003 -85.3125 96.4375 C-85.94027344 95.65761719 -86.56804688 94.87773437 -87.21484375 94.07421875 C-93.02784168 87.1913439 -99.95678855 81.83570592 -107.03125 76.31640625 C-110.96126982 73.07952349 -112.15930965 70.62472521 -112.8125 65.5625 C-112.6190747 60.79097095 -110.33269192 57.97920704 -107.3125 54.4375 C-105.27210236 52.59649865 -103.31257025 50.94645133 -101.125 49.3125 C-100.52115479 48.85149902 -99.91730957 48.39049805 -99.29516602 47.91552734 C-97.31029292 46.40996956 -95.31244855 44.92295869 -93.3125 43.4375 C-92.62961914 42.92380859 -91.94673828 42.41011719 -91.24316406 41.88085938 C-75.14245606 29.79601514 -58.02343776 19.52236959 -40.625 9.4375 C-39.01334961 8.50284912 -39.01334961 8.50284912 -37.36914062 7.54931641 C-34.36290343 5.82162083 -31.34252583 4.12306374 -28.3125 2.4375 C-27.41837402 1.92703125 -26.52424805 1.4165625 -25.60302734 0.890625 C-16.33120634 -4.14583242 -9.86984963 -2.81770687 0 0 Z " fill="#CB0000" transform="translate(792.3125,243.5625)"/>
<path d="M0 0 C12.21 0 24.42 0 37 0 C37 1.65 37 3.3 37 5 C35.70990357 5.50403768 34.41786211 6.00309926 33.125 6.5 C32.40570312 6.7784375 31.68640625 7.056875 30.9453125 7.34375 C29 8 29 8 27 8 C26.67 20.21 26.34 32.42 26 45 C41.18 45 56.36 45 72 45 C71.896875 39.10125 71.79375 33.2025 71.6875 27.125 C71.66260498 25.26375488 71.63770996 23.40250977 71.61206055 21.48486328 C71.57978225 20.01332025 71.54641019 18.54180062 71.51171875 17.0703125 C71.50547485 16.30323975 71.49923096 15.53616699 71.49279785 14.74584961 C71.46105415 12.30536148 71.46105415 12.30536148 71 9 C68.01353231 7.00902154 65.40312738 6.05875074 62 5 C61.505 2.525 61.505 2.525 61 0 C73.54 0 86.08 0 99 0 C99 1.65 99 3.3 99 5 C98.36191406 5.20496094 97.72382812 5.40992188 97.06640625 5.62109375 C96.24011719 5.89050781 95.41382813 6.15992188 94.5625 6.4375 C93.73878906 6.70433594 92.91507813 6.97117187 92.06640625 7.24609375 C90.03780412 7.82155494 90.03780412 7.82155494 89 9 C88.90495749 11.52541002 88.87442842 14.02337126 88.88647461 16.54907227 C88.88632858 17.33925751 88.88618256 18.12944275 88.8860321 18.943573 C88.88673143 21.56787822 88.89452473 24.19211336 88.90234375 26.81640625 C88.90420786 28.63101665 88.9056318 30.44562756 88.90663147 32.26023865 C88.91045721 37.0459023 88.92028796 41.8315358 88.93133545 46.6171875 C88.94154837 51.49674064 88.94612883 56.37629864 88.95117188 61.25585938 C88.96191018 70.83725286 88.97898727 80.41862393 89 90 C90.093125 90.474375 91.18625 90.94875 92.3125 91.4375 C92.92738281 91.70433594 93.54226563 91.97117187 94.17578125 92.24609375 C95.75711021 92.89961942 97.37675406 93.45891802 99 94 C99 95.98 99 97.96 99 100 C86.46 100 73.92 100 61 100 C61 98.35 61 96.7 61 95 C64.3 93.35 67.6 91.7 71 90 C71.33 77.46 71.66 64.92 72 52 C56.82 52 41.64 52 26 52 C26.144375 58.06375 26.28875 64.1275 26.4375 70.375 C26.48060303 72.28845215 26.52370605 74.2019043 26.56811523 76.17333984 C26.60623262 77.6858819 26.64470128 79.19841517 26.68359375 80.7109375 C26.70006958 81.49960205 26.71654541 82.2882666 26.73352051 83.10083008 C26.75134538 87.18283349 26.75134538 87.18283349 28 91 C30.11327425 91.90725434 30.11327425 91.90725434 32.5625 92.625 C33.38878906 92.88539062 34.21507812 93.14578125 35.06640625 93.4140625 C35.70449219 93.60742188 36.34257813 93.80078125 37 94 C37.33 95.65 37.66 97.3 38 99 C34.82709287 100.58645357 31.41174616 100.12078213 27.9296875 100.09765625 C26.73534592 100.09553383 26.73534592 100.09553383 25.51687622 100.09336853 C22.9695462 100.08776345 20.42230353 100.07521014 17.875 100.0625 C16.14974085 100.05748565 14.42448033 100.05292263 12.69921875 100.04882812 C8.46611209 100.03779237 4.23307086 100.02052436 0 100 C0 98.02 0 96.04 0 94 C0.63808594 93.79503906 1.27617188 93.59007812 1.93359375 93.37890625 C2.75988281 93.10949219 3.58617187 92.84007812 4.4375 92.5625 C5.26121094 92.29566406 6.08492187 92.02882813 6.93359375 91.75390625 C8.96219588 91.17844506 8.96219588 91.17844506 10 90 C10.09504251 87.47458998 10.12557158 84.97662874 10.11352539 82.45092773 C10.11367142 81.66074249 10.11381744 80.87055725 10.1139679 80.056427 C10.11326857 77.43212178 10.10547527 74.80788664 10.09765625 72.18359375 C10.09579214 70.36898335 10.0943682 68.55437244 10.09336853 66.73976135 C10.08954279 61.9540977 10.07971204 57.1684642 10.06866455 52.3828125 C10.05845163 47.50325936 10.05387117 42.62370136 10.04882812 37.74414062 C10.03808982 28.16274714 10.02101273 18.58137607 10 9 C5.05 7.02 5.05 7.02 0 5 C0 3.35 0 1.7 0 0 Z " fill="#CB0000" transform="translate(1024,1534)"/>
<path d="M0 0 C7.71884727 -0.07669341 15.43759459 -0.12886742 23.15673828 -0.16479492 C25.77721834 -0.17978844 28.39767371 -0.20019002 31.01806641 -0.22631836 C34.80637748 -0.2631191 38.59435393 -0.27982142 42.3828125 -0.29296875 C43.53548615 -0.30845261 44.68815979 -0.32393646 45.87576294 -0.33988953 C61.36465693 -0.34302287 76.68459392 3.1236924 88.25390625 14.01953125 C97.83621148 24.88805195 101.57203521 38.8643389 100.8125 53.125 C99.55314014 66.16223672 94.99177195 78.19647277 85.171875 87.22265625 C68.41943666 100.93193583 48.03619018 99.64056188 27.5 99.75 C24.82676642 99.77606251 22.15364628 99.80814083 19.48046875 99.83984375 C12.98704835 99.91313965 6.49373449 99.96511232 0 100 C0 98.02 0 96.04 0 94 C0.71027344 93.72285156 1.42054688 93.44570312 2.15234375 93.16015625 C3.53099609 92.61681641 3.53099609 92.61681641 4.9375 92.0625 C5.85402344 91.70285156 6.77054688 91.34320312 7.71484375 90.97265625 C9.92418533 90.2003782 9.92418533 90.2003782 11 89 C11.12156404 86.55196588 11.17858482 84.13161612 11.19287109 81.68212891 C11.20104858 80.91626968 11.20922607 80.15041046 11.21765137 79.36134338 C11.24254871 76.81642451 11.25903143 74.27156151 11.2734375 71.7265625 C11.27876118 70.8596516 11.28408485 69.99274071 11.28956985 69.09955978 C11.31631903 64.51202019 11.33568911 59.92450799 11.35009766 55.33691406 C11.36675927 50.5894728 11.4115441 45.84272392 11.4624691 41.09554482 C11.4960639 37.45304533 11.50766646 33.8107118 11.51332474 30.16807175 C11.52005775 28.41769488 11.53533276 26.66732969 11.55921555 24.91710281 C11.59070848 22.46970842 11.59092886 20.02420254 11.58349609 17.57666016 C11.59990143 16.85030869 11.61630676 16.12395721 11.63320923 15.37559509 C11.66106476 13.11693505 11.66106476 13.11693505 11 10 C7.70250836 7.31136777 4.04967426 6.22432013 0 5 C0 3.35 0 1.7 0 0 Z M27 7 C26.9305923 17.65688885 26.87723581 28.31372422 26.84456348 38.97079277 C26.82888505 43.91892333 26.80760723 48.86689964 26.77368164 53.81494141 C26.7411656 58.58708341 26.7231634 63.35907675 26.71536827 68.13132095 C26.70981077 69.95506253 26.69895881 71.77879567 26.68280983 73.60247421 C26.66113833 76.1503657 26.65802871 78.69763715 26.65942383 81.24560547 C26.64324509 82.38496048 26.64324509 82.38496048 26.6267395 83.54733276 C26.60516224 85.8607404 26.60516224 85.8607404 27 89 C35.27291654 94.51527769 47.82715918 92.24069819 57.09521484 90.47607422 C66.51886907 88.438346 73.00052669 84.18999916 78.59765625 76.3671875 C85.56183136 64.61150473 85.4815763 49.62725113 82.375 36.6875 C79.71789601 26.54908916 74.67771546 18.97176118 66 13 C56.2556126 7.56758891 44.98496931 6.88029971 34.04296875 6.953125 C33.36053101 6.95650879 32.67809326 6.95989258 31.97497559 6.96337891 C30.31662837 6.97209558 28.65830709 6.98554152 27 7 Z " fill="#CB0000" transform="translate(235,1534)"/>
<path d="M0 0 C1.80268535 4.90643926 2.77242272 9.74213681 3.625 14.875 C3.7590625 15.65875 3.893125 16.4425 4.03125 17.25 C4.35836422 19.16595474 4.67976884 21.08288282 5 23 C3.35 23.33 1.7 23.66 0 24 C-0.31453125 23.48050781 -0.6290625 22.96101563 -0.953125 22.42578125 C-5.54714321 14.18616259 -5.54714321 14.18616259 -13 9 C-16.96187368 8.24557371 -20.8081713 7.83517635 -24.8359375 7.68359375 C-26.27525635 7.62643188 -26.27525635 7.62643188 -27.74365234 7.56811523 C-28.94199707 7.52501221 -30.1403418 7.48190918 -31.375 7.4375 C-35.21125 7.293125 -39.0475 7.14875 -43 7 C-43 19.54 -43 32.08 -43 45 C-30.625 44.505 -30.625 44.505 -18 44 C-16.14624378 40.29248755 -14.46552946 36.8329232 -13 33 C-11.35 33 -9.7 33 -8 33 C-8 43.23 -8 53.46 -8 64 C-9.65 64 -11.3 64 -13 64 C-13.27714844 63.28972656 -13.55429687 62.57945313 -13.83984375 61.84765625 C-14.20207031 60.92855469 -14.56429687 60.00945312 -14.9375 59.0625 C-15.29714844 58.14597656 -15.65679687 57.22945312 -16.02734375 56.28515625 C-16.7996218 54.07581467 -16.7996218 54.07581467 -18 53 C-19.85174706 52.84213692 -21.7090911 52.74892644 -23.56640625 52.68359375 C-25.2534668 52.62075195 -25.2534668 52.62075195 -26.97460938 52.55664062 C-28.75061523 52.49766602 -28.75061523 52.49766602 -30.5625 52.4375 C-31.75037109 52.39431641 -32.93824219 52.35113281 -34.16210938 52.30664062 C-37.10794784 52.20016454 -40.0538743 52.09815159 -43 52 C-42.93117243 56.93010753 -42.84323172 61.85936287 -42.73754883 66.78881836 C-42.70429137 68.46580559 -42.67626192 70.14290497 -42.65356445 71.82006836 C-42.62003263 74.23079225 -42.56772022 76.64048762 -42.51171875 79.05078125 C-42.50532883 79.80087967 -42.4989389 80.55097809 -42.49235535 81.32380676 C-42.38866913 85.37531389 -42.38866913 85.37531389 -40.66723633 88.95385742 C-34.04344519 93.1100948 -19.85496674 91.97818589 -12.36328125 90.46875 C-3.7227756 87.4404585 -0.24234359 81.63913416 4 74 C5.98 74.33 7.96 74.66 10 75 C5.56521739 96.43478261 5.56521739 96.43478261 2 100 C-0.9359436 100.24050903 -0.9359436 100.24050903 -4.74462891 100.22705078 C-5.78382225 100.22748886 -5.78382225 100.22748886 -6.8440094 100.22793579 C-9.13832034 100.22654031 -11.43230816 100.21096919 -13.7265625 100.1953125 C-15.31553978 100.19158314 -16.90451936 100.1887358 -18.49349976 100.18673706 C-22.67914154 100.17909453 -26.8646449 100.15944081 -31.05023193 100.1373291 C-35.31992724 100.11688396 -39.58964487 100.1077382 -43.859375 100.09765625 C-52.23964691 100.07619543 -60.61980625 100.04205211 -69 100 C-69.495 97.525 -69.495 97.525 -70 95 C-68.30729167 94.28385417 -66.61458333 93.56770833 -64.921875 92.8515625 C-62.91880788 91.96402463 -60.95959207 90.97979604 -59 90 C-59 63.27 -59 36.54 -59 9 C-62.63 7.68 -66.26 6.36 -70 5 C-70 3.35 -70 1.7 -70 0 C-61.61150821 -0.15402873 -53.22294202 -0.30220813 -44.83421803 -0.4429636 C-40.93881901 -0.50850792 -37.04347621 -0.57605092 -33.14819336 -0.64819336 C-29.38760484 -0.71776712 -25.62695938 -0.78204924 -21.86621666 -0.84269524 C-20.43290625 -0.86673283 -18.99962626 -0.89266274 -17.56638527 -0.92053413 C-15.55582234 -0.95930606 -13.54512069 -0.990669 -11.53442383 -1.02172852 C-10.39080887 -1.04171402 -9.24719391 -1.06169952 -8.06892395 -1.08229065 C-5.24427627 -1.00655007 -2.74214477 -0.65373372 0 0 Z " fill="#CB0000" transform="translate(517,1534)"/>
<path d="M0 0 C1.65 0 3.3 0 5 0 C8.44277057 7.42156844 11.65302469 14.90619232 14.6953125 22.5 C15.12500336 23.56702652 15.55469421 24.63405304 15.99740601 25.7334137 C16.90769945 27.9944171 17.8169927 30.25582341 18.7253418 32.51760864 C20.13659724 36.02885427 21.55294043 39.53800812 22.97070312 43.04663086 C26.90456785 52.78733257 30.83224271 62.52892638 34.6484375 72.31640625 C35.1503773 73.59199437 35.65278925 74.86739684 36.15576172 76.14257812 C37.02269184 78.34816425 37.87687671 80.55882331 38.71533203 82.77539062 C40.75122341 88.05430302 40.75122341 88.05430302 44.57421875 92.078125 C47.36220077 93.13764796 50.14460483 94.13674099 53 95 C53 96.98 53 98.96 53 101 C40.46 101 27.92 101 15 101 C14.67 99.35 14.34 97.7 14 96 C16.97 94.68 19.94 93.36 23 92 C22.43993335 86.09957948 20.69598939 81.20615258 18.4375 75.75 C17.78574781 74.16334693 17.13840965 72.57487151 16.49609375 70.984375 C16.20919678 70.29053711 15.9222998 69.59669922 15.62670898 68.88183594 C15 67 15 67 15 64 C-1.335 64.495 -1.335 64.495 -18 65 C-19.485 68.7125 -20.97 72.425 -22.5 76.25 C-22.96986328 77.4143457 -23.43972656 78.57869141 -23.92382812 79.77832031 C-24.28927734 80.70225586 -24.65472656 81.62619141 -25.03125 82.578125 C-25.40830078 83.52075195 -25.78535156 84.46337891 -26.17382812 85.43457031 C-27.20435795 88.18537602 -27.20435795 88.18537602 -27 92 C-26.36191406 92.17015625 -25.72382812 92.3403125 -25.06640625 92.515625 C-24.24011719 92.75796875 -23.41382813 93.0003125 -22.5625 93.25 C-21.73878906 93.48203125 -20.91507813 93.7140625 -20.06640625 93.953125 C-18 95 -18 95 -17.08984375 96.984375 C-17.06019531 97.64953125 -17.03054688 98.3146875 -17 99 C-19 101 -19 101 -21.98095703 101.22705078 C-23.22731934 101.21657715 -24.47368164 101.20610352 -25.7578125 101.1953125 C-26.42086395 101.1924826 -27.08391541 101.18965271 -27.76705933 101.18673706 C-29.88655583 101.17553435 -32.00563104 101.15043051 -34.125 101.125 C-35.56119182 101.11497028 -36.99739025 101.10584441 -38.43359375 101.09765625 C-41.95586628 101.075595 -45.47789203 101.04106494 -49 101 C-49 99.02 -49 97.04 -49 95 C-48.34773437 94.85046875 -47.69546875 94.7009375 -47.0234375 94.546875 C-42.98325792 93.33124575 -39.86664217 92.24997741 -37.40209961 88.6953125 C-36.96905518 87.76460937 -36.53601074 86.83390625 -36.08984375 85.875 C-35.58743164 84.79702148 -35.08501953 83.71904297 -34.56738281 82.60839844 C-31.97253144 76.63458174 -29.50875168 70.61556104 -27.10601807 64.56216431 C-21.1463507 49.56003134 -14.95437036 34.66206631 -8.625 19.8125 C-8.06055679 18.48696106 -8.06055679 18.48696106 -7.48471069 17.13464355 C-6.42078794 14.63738487 -5.35544883 12.14073883 -4.2890625 9.64453125 C-3.96997421 8.89732315 -3.65088593 8.15011505 -3.3221283 7.38026428 C-1.12115489 2.24230978 -1.12115489 2.24230978 0 0 Z M-2 23 C-3.85584011 27.51886436 -5.70713411 32.0395535 -7.55419922 36.56201172 C-8.18347884 38.10093664 -8.81400811 39.63935118 -9.44580078 41.17724609 C-10.35255984 43.38506917 -11.25484123 45.59467556 -12.15625 47.8046875 C-12.44060913 48.49432587 -12.72496826 49.18396423 -13.01794434 49.89450073 C-14.49977165 53.33551611 -14.49977165 53.33551611 -15 57 C-6.42 57 2.16 57 11 57 C10.19857828 52.19146965 9.26795995 48.72891115 7.49609375 44.2890625 C7.2533522 43.67606293 7.01061066 43.06306335 6.76051331 42.43148804 C5.99171749 40.49373226 5.21476724 38.55937111 4.4375 36.625 C3.91156482 35.30360203 3.3861688 33.98198933 2.86132812 32.66015625 C1.58044219 29.43759822 0.29222716 26.2180297 -1 23 C-1.33 23 -1.66 23 -2 23 Z " fill="#CB0000" transform="translate(680,1533)"/>
<path d="M0 0 C1.22215965 -0.01248528 1.22215965 -0.01248528 2.4690094 -0.02522278 C5.17087537 -0.04938088 7.87250027 -0.05810148 10.57446289 -0.06469727 C12.44771907 -0.0736585 14.32097448 -0.08278024 16.19422913 -0.09205627 C20.12429548 -0.10856415 24.05427644 -0.11624977 27.984375 -0.11914062 C33.02663489 -0.12452928 38.06809545 -0.16222132 43.11012936 -0.20788479 C46.97997487 -0.23758831 50.84962625 -0.2448627 54.71957588 -0.24586678 C56.57878853 -0.25008171 58.4380011 -0.26256673 60.29710197 -0.28338432 C62.89528521 -0.31016355 65.49159421 -0.3055148 68.08984375 -0.29296875 C68.86137787 -0.30780304 69.63291199 -0.32263733 70.42782593 -0.33792114 C72.573349 -0.30833435 72.573349 -0.30833435 76.10961914 0.30639648 C79.21979682 4.00715723 79.95781186 8.20454944 80.79711914 12.86889648 C80.92666992 13.52825195 81.0562207 14.18760742 81.18969727 14.86694336 C81.80385015 18.10018209 82.10961914 20.99919295 82.10961914 24.30639648 C80.29711914 24.99389648 80.29711914 24.99389648 78.10961914 25.30639648 C75.69963536 23.31279734 74.30929537 21.07626355 72.79711914 18.36889648 C70.44600008 14.53952891 68.17983399 12.38303672 64.10961914 10.30639648 C56.84623448 9.09583237 49.45885317 8.76572361 42.10961914 8.30639648 C42.43961914 35.69639648 42.76961914 63.08639648 43.10961914 91.30639648 C46.11066732 92.80692058 48.20313021 93.6948824 51.35961914 94.43139648 C52.59711914 94.72014648 53.83461914 95.00889648 55.10961914 95.30639648 C56.23461914 99.05639648 56.23461914 99.05639648 55.10961914 101.30639648 C40.91961914 101.30639648 26.72961914 101.30639648 12.10961914 101.30639648 C12.10961914 99.32639648 12.10961914 97.34639648 12.10961914 95.30639648 C16.39961914 93.98639648 20.68961914 92.66639648 25.10961914 91.30639648 C25.43961914 63.91639648 25.76961914 36.52639648 26.10961914 8.30639648 C10.7249107 7.89740889 10.7249107 7.89740889 -2.26538086 14.55639648 C-4.0634861 16.91117541 -5.19105515 18.95585294 -6.45288086 21.68139648 C-7.89038086 24.30639648 -7.89038086 24.30639648 -10.51538086 25.24389648 C-11.69100586 25.27483398 -11.69100586 25.27483398 -12.89038086 25.30639648 C-13.22038086 24.97639648 -13.55038086 24.64639648 -13.89038086 24.30639648 C-12.27065732 0.01054345 -12.27065732 0.01054345 0 0 Z " fill="#CB0000" transform="translate(835.890380859375,1532.693603515625)"/>
</svg>
